<svg width="24" height="28" viewBox="0 0 24 28" fill="none" xmlns="http://www.w3.org/2000/svg">
<path d="M22.6666 8.42343L14.6667 1.06823C13.9333 0.380313 12.9839 0 12 0C11.0161 0 10.0668 0.380313 9.33339 1.06823L1.33345 8.42343C0.909944 8.82065 0.571989 9.30795 0.342086 9.85286C0.112184 10.3978 -0.00439005 10.9878 0.000126391 11.5836V23.805C0.000126391 24.9176 0.421551 25.9846 1.17169 26.7713C1.92183 27.558 2.93924 28 4.0001 28H20C21.0608 28 22.0783 27.558 22.8284 26.7713C23.5785 25.9846 24 24.9176 24 23.805V11.5697C24.0026 10.9762 23.8851 10.3888 23.6552 9.84648C23.4254 9.30412 23.0884 8.81909 22.6666 8.42343ZM14.6667 25.2033H9.33339V18.2117C9.33339 17.8409 9.47387 17.4852 9.72392 17.2229C9.97396 16.9607 10.3131 16.8134 10.6667 16.8134H13.3334C13.687 16.8134 14.0261 16.9607 14.2762 17.2229C14.5262 17.4852 14.6667 17.8409 14.6667 18.2117V25.2033ZM21.3333 23.805C21.3333 24.1759 21.1928 24.5315 20.9428 24.7938C20.6927 25.056 20.3536 25.2033 20 25.2033H17.3333V18.2117C17.3333 17.0991 16.9119 16.0321 16.1618 15.2454C15.4116 14.4587 14.3942 14.0167 13.3334 14.0167H10.6667C9.60586 14.0167 8.58845 14.4587 7.83831 15.2454C7.08817 16.0321 6.66675 17.0991 6.66675 18.2117V25.2033H4.0001C3.64648 25.2033 3.30734 25.056 3.0573 24.7938C2.80725 24.5315 2.66677 24.1759 2.66677 23.805V11.5697C2.66701 11.3711 2.70756 11.1749 2.78573 10.9941C2.86389 10.8133 2.97788 10.652 3.1201 10.5209L11.12 3.1797C11.3634 2.95552 11.6762 2.83189 12 2.83189C12.3239 2.83189 12.6367 2.95552 12.88 3.1797L20.88 10.5209C21.0222 10.652 21.1362 10.8133 21.2143 10.9941C21.2925 11.1749 21.3331 11.3711 21.3333 11.5697V23.805Z" fill="#E9840F"/>
</svg>
