<svg width="323" height="253" viewBox="0 0 323 253" fill="none" xmlns="http://www.w3.org/2000/svg">
<path d="M207.689 67.4667H115.311C109.021 67.4667 103.922 72.6946 103.922 79.1436V173.856C103.922 180.305 109.021 185.533 115.311 185.533H207.689C213.979 185.533 219.078 180.305 219.078 173.856V79.1436C219.078 72.6946 213.979 67.4667 207.689 67.4667Z" fill="#4E8445" stroke="#3A3A3A" stroke-width="2"/>
<path d="M40.7261 75.9C60.1161 75.9 75.8348 60.1678 75.8348 40.7611C75.8348 21.3544 60.1161 5.62219 40.7261 5.62219C21.3361 5.62219 5.61743 21.3544 5.61743 40.7611C5.61743 60.1678 21.3361 75.9 40.7261 75.9Z" fill="#D9D9D9" stroke="#3A3A3A" stroke-width="2"/>
<path d="M282.274 75.9C301.664 75.9 317.383 60.1678 317.383 40.7611C317.383 21.3544 301.664 5.62219 282.274 5.62219C262.884 5.62219 247.165 21.3544 247.165 40.7611C247.165 60.1678 262.884 75.9 282.274 75.9Z" fill="#D9D9D9" stroke="#3A3A3A" stroke-width="2"/>
<path d="M40.7261 247.378C60.1161 247.378 75.8348 231.646 75.8348 212.239C75.8348 192.832 60.1161 177.1 40.7261 177.1C21.3361 177.1 5.61743 192.832 5.61743 212.239C5.61743 231.646 21.3361 247.378 40.7261 247.378Z" fill="#D9D9D9" stroke="#3A3A3A" stroke-width="2"/>
<path d="M282.274 247.378C301.664 247.378 317.383 231.646 317.383 212.239C317.383 192.832 301.664 177.1 282.274 177.1C262.884 177.1 247.165 192.832 247.165 212.239C247.165 231.646 262.884 247.378 282.274 247.378Z" fill="#D9D9D9" stroke="#3A3A3A" stroke-width="2"/>
<path d="M42.1304 87.1445V115.688C42.1304 118.554 44.3939 120.878 47.186 120.878H92.6869" stroke="#3A3A3A" stroke-width="1.5"/>
<path d="M280.87 87.1445V115.688C280.87 118.554 278.606 120.878 275.814 120.878H230.313" stroke="#3A3A3A" stroke-width="1.5"/>
<path d="M42.1304 163.044V136.879C42.1304 134.252 44.3939 132.122 47.186 132.122H92.6869" stroke="#3A3A3A" stroke-width="1.5"/>
<path d="M280.87 163.044V136.879C280.87 134.252 278.606 132.122 275.814 132.122H230.313" stroke="#3A3A3A" stroke-width="1.5"/>
</svg>
