<svg width="399" height="110" viewBox="0 0 399 110" fill="none" xmlns="http://www.w3.org/2000/svg">
<path d="M110.967 59.0691C108.897 59.056 106.898 58.7035 104.972 58.0119C103.059 57.3205 101.342 56.1969 99.822 54.641C98.3021 53.0851 97.0963 51.0239 96.2053 48.4573C95.3273 45.8911 94.8882 42.7395 94.8882 39.0027C94.9013 35.5719 95.2879 32.5066 96.0481 29.8072C96.8211 27.0944 97.922 24.7938 99.3503 22.9056C100.792 21.0173 102.515 19.5811 104.52 18.5971C106.525 17.5997 108.772 17.1011 111.262 17.1011C113.949 17.1011 116.32 17.633 118.378 18.6968C120.435 19.7473 122.086 21.1769 123.331 22.9854C124.589 24.794 125.349 26.8218 125.611 29.0693H117.218C116.89 27.6463 116.202 26.5292 115.154 25.718C114.106 24.9068 112.808 24.5015 111.262 24.5015C108.641 24.5015 106.649 25.6583 105.287 27.9721C103.937 30.2858 103.249 33.4309 103.223 37.407H103.498C104.101 36.1968 104.913 35.1663 105.935 34.3151C106.971 33.4508 108.143 32.7926 109.454 32.3405C110.777 31.875 112.173 31.6423 113.64 31.6423C116.026 31.6423 118.149 32.2141 120.009 33.3576C121.87 34.4881 123.338 36.044 124.412 38.0254C125.487 40.0065 126.024 42.2739 126.024 44.8271C126.024 47.593 125.389 50.0533 124.117 52.2074C122.859 54.3618 121.097 56.0506 118.83 57.274C116.576 58.484 113.955 59.0824 110.967 59.0691ZM110.928 52.2872C112.238 52.2872 113.411 51.968 114.447 51.3298C115.482 50.6915 116.294 49.8272 116.884 48.7368C117.474 47.6464 117.768 46.4228 117.768 45.0665C117.768 43.71 117.474 42.4932 116.884 41.4162C116.307 40.3391 115.508 39.4813 114.486 38.8431C113.464 38.2049 112.297 37.8856 110.987 37.8856C110.004 37.8856 109.093 38.0717 108.255 38.4441C107.429 38.8164 106.702 39.3351 106.073 40C105.457 40.6649 104.972 41.4361 104.618 42.3137C104.264 43.1783 104.088 44.1023 104.088 45.0864C104.088 46.4029 104.382 47.6064 104.972 48.6968C105.575 49.7872 106.387 50.6583 107.409 51.3099C108.445 51.9614 109.618 52.2872 110.928 52.2872ZM147.843 59.4082C144.462 59.3949 141.553 58.5504 139.115 56.8749C136.691 55.1994 134.824 52.7726 133.513 49.5943C132.216 46.4163 131.574 42.5932 131.587 38.1251C131.587 33.6703 132.236 29.8737 133.533 26.7354C134.843 23.5971 136.711 21.2101 139.135 19.5745C141.572 17.9255 144.475 17.1011 147.843 17.1011C151.211 17.1011 154.107 17.9255 156.531 19.5745C158.968 21.2234 160.842 23.617 162.153 26.7553C163.463 29.8802 164.112 33.6703 164.099 38.1251C164.099 42.6063 163.444 46.4362 162.133 49.6145C160.836 52.7925 158.975 55.2193 156.551 56.8951C154.126 58.5706 151.224 59.4082 147.843 59.4082ZM147.843 52.2474C150.149 52.2474 151.99 51.0704 153.366 48.7167C154.742 46.3631 155.424 42.8324 155.41 38.1251C155.41 35.0266 155.096 32.4467 154.467 30.3858C153.851 28.3245 152.973 26.7752 151.833 25.7381C150.706 24.7009 149.376 24.1822 147.843 24.1822C145.55 24.1822 143.715 25.3456 142.339 27.673C140.963 30.0001 140.269 33.484 140.255 38.1251C140.255 41.2633 140.563 43.883 141.179 45.984C141.808 48.0719 142.693 49.6409 143.833 50.6915C144.973 51.7288 146.31 52.2474 147.843 52.2474ZM189.057 38.3643V45.1063H170.698V38.3643H189.057ZM214.041 49.1157L222.218 27.8724H228.587L216.812 58.5106H211.25L199.751 27.8724H206.1L214.041 49.1157ZM204.193 27.8724V58.5106H196.193V27.8724H204.193ZM224.302 58.5106V27.8724H232.204V58.5106H224.302ZM246.681 47.3005L257.551 27.8724H265.805V58.5106H257.825V39.0226L246.995 58.5106H238.68V27.8724H246.681V47.3005ZM293.533 39.8006V46.4827H277.766V39.8006H293.533ZM280.52 27.8724V58.5106H272.519V27.8724H280.52ZM298.779 27.8724V58.5106H290.839V27.8724H298.779ZM310.171 59.0293C308.874 59.0293 307.76 58.5638 306.829 57.633C305.911 56.6889 305.454 55.5584 305.454 54.2419C305.454 52.9388 305.911 51.8217 306.829 50.8909C307.76 49.9601 308.874 49.4946 310.171 49.4946C311.43 49.4946 312.53 49.9601 313.473 50.8909C314.417 51.8217 314.889 52.9388 314.889 54.2419C314.889 55.1196 314.666 55.9242 314.221 56.6556C313.787 57.3737 313.217 57.9522 312.509 58.3911C311.801 58.8165 311.022 59.0293 310.171 59.0293ZM321.762 70V27.8724H330.019V33.0187H330.393C330.759 32.1942 331.29 31.3563 331.984 30.5053C332.692 29.641 333.61 28.923 334.736 28.351C335.877 27.7659 337.291 27.4733 338.982 27.4733C341.184 27.4733 343.216 28.0584 345.075 29.2286C346.936 30.3858 348.424 32.1343 349.538 34.4747C350.652 36.8018 351.208 39.7208 351.208 43.2314C351.208 46.6489 350.666 49.5346 349.577 51.8884C348.502 54.2288 347.035 56.0041 345.174 57.2141C343.327 58.4109 341.256 59.0094 338.963 59.0094C337.337 59.0094 335.956 58.7367 334.814 58.1914C333.689 57.6463 332.764 56.9615 332.044 56.137C331.322 55.2991 330.773 54.4547 330.393 53.6037H330.137V70H321.762ZM329.959 43.1914C329.959 45.0134 330.208 46.6023 330.706 47.9588C331.205 49.3151 331.926 50.3723 332.87 51.1303C333.813 51.8751 334.959 52.2474 336.309 52.2474C337.672 52.2474 338.825 51.8683 339.768 51.1105C340.711 50.3391 341.426 49.2753 341.911 47.9188C342.409 46.5492 342.658 44.9734 342.658 43.1914C342.658 41.423 342.416 39.8671 341.931 38.5239C341.445 37.1809 340.732 36.1303 339.789 35.3723C338.846 34.6144 337.685 34.2353 336.309 34.2353C334.945 34.2353 333.792 34.6011 332.849 35.3325C331.92 36.0639 331.205 37.1011 330.706 38.4441C330.208 39.7872 329.959 41.3696 329.959 43.1914ZM371.238 68.923V17.6596H379.592V68.923H371.238ZM371.238 59.1091C368.918 59.1091 366.803 58.7302 364.889 57.9721C362.977 57.2007 361.326 56.1171 359.935 54.7208C358.546 53.3112 357.472 51.6422 356.713 49.7142C355.952 47.7725 355.571 45.6383 355.571 43.3112C355.571 40.9575 355.952 38.8164 356.713 36.8884C357.472 34.9468 358.546 33.2778 359.935 31.8818C361.326 30.4721 362.977 29.3883 364.889 28.6304C366.803 27.859 368.918 27.4733 371.238 27.4733H372.791V59.1091H371.238ZM371.238 52.4866H372.163V34.0958H371.238C370.111 34.0958 369.11 34.3352 368.231 34.8138C367.352 35.2925 366.612 35.9508 366.01 36.7887C365.408 37.613 364.949 38.5838 364.633 39.7009C364.333 40.8177 364.181 42.0212 364.181 43.3112C364.181 45.0134 364.458 46.5625 365.007 47.9588C365.558 49.3418 366.363 50.4455 367.426 51.2698C368.487 52.081 369.758 52.4866 371.238 52.4866ZM379.592 59.1091H378.04V27.4733H379.592C381.912 27.4733 384.029 27.859 385.941 28.6304C387.856 29.3883 389.507 30.4721 390.895 31.8818C392.284 33.2778 393.359 34.9468 394.12 36.8884C394.879 38.8164 395.259 40.9575 395.259 43.3112C395.259 45.6383 394.879 47.7725 394.12 49.7142C393.359 51.6422 392.284 53.3112 390.895 54.7208C389.507 56.1171 387.856 57.2007 385.941 57.9721C384.029 58.7302 381.912 59.1091 379.592 59.1091ZM379.592 52.4866C380.72 52.4866 381.723 52.254 382.599 51.7885C383.478 51.3099 384.219 50.6515 384.82 49.8139C385.425 48.976 385.884 48.0054 386.197 46.9017C386.511 45.7846 386.668 44.5877 386.668 43.3112C386.668 41.5957 386.387 40.0466 385.824 38.6636C385.273 37.2673 384.475 36.157 383.425 35.3325C382.378 34.5079 381.1 34.0958 379.592 34.0958H378.669V52.4866H379.592Z" fill="white"/>
<path d="M109.251 101.117C107.206 101.117 105.413 100.623 103.87 99.6359C102.336 98.6487 101.137 97.2674 100.273 95.4919C99.4174 93.7167 98.99 91.6422 98.99 89.2685C98.99 86.8749 99.4174 84.7856 100.273 83.0004C101.137 81.2151 102.336 79.8289 103.87 78.8414C105.413 77.854 107.206 77.3604 109.251 77.3604C111.295 77.3604 113.084 77.854 114.617 78.8414C116.16 79.8289 117.359 81.2151 118.214 83.0004C119.079 84.7856 119.511 86.8749 119.511 89.2685C119.511 91.6422 119.079 93.7167 118.214 95.4919C117.359 97.2674 116.16 98.6487 114.617 99.6359C113.084 100.623 111.295 101.117 109.251 101.117ZM109.251 97.9454C110.803 97.9454 112.081 97.5414 113.083 96.7338C114.086 95.9258 114.828 94.8638 115.31 93.5473C115.791 92.2308 116.032 90.8045 116.032 89.2685C116.032 87.7327 115.791 86.3015 115.31 84.975C114.828 83.6487 114.086 82.5765 113.083 81.7585C112.081 80.9408 110.803 80.5319 109.251 80.5319C107.698 80.5319 106.42 80.9408 105.418 81.7585C104.415 82.5765 103.673 83.6487 103.191 84.975C102.71 86.3015 102.469 87.7327 102.469 89.2685C102.469 90.8045 102.71 92.2308 103.191 93.5473C103.673 94.8638 104.415 95.9258 105.418 96.7338C106.42 97.5414 107.698 97.9454 109.251 97.9454ZM121.863 80.9509V77.6595H140.261V80.9509H132.831V100.638H129.352V80.9509H121.863ZM153.655 101.117C151.473 101.117 149.591 100.628 148.008 99.6509C146.436 98.6634 145.222 97.2873 144.367 95.5219C143.522 93.7467 143.099 91.6822 143.099 89.3284C143.099 86.9746 143.522 84.9003 144.367 83.105C145.222 81.2998 146.411 79.8937 147.934 78.8864C149.468 77.869 151.256 77.3604 153.301 77.3604C154.48 77.3604 155.645 77.5598 156.795 77.9589C157.944 78.3577 158.991 79.006 159.935 79.9035C160.878 80.7912 161.63 81.968 162.19 83.4341C162.751 84.9003 163.031 86.7055 163.031 88.8498V90.3458H145.576V87.2939H159.492C159.492 85.9973 159.237 84.8404 158.726 83.823C158.225 82.8059 157.507 82.0029 156.574 81.4145C155.65 80.8261 154.559 80.5319 153.301 80.5319C151.915 80.5319 150.716 80.8809 149.704 81.579C148.701 82.2673 147.93 83.1649 147.389 84.2719C146.849 85.3789 146.578 86.5658 146.578 87.8324V89.8669C146.578 91.6024 146.873 93.0736 147.463 94.2803C148.062 95.4769 148.893 96.3897 149.954 97.0179C151.016 97.6362 152.249 97.9454 153.655 97.9454C154.569 97.9454 155.394 97.8157 156.131 97.5564C156.878 97.2873 157.522 96.8882 158.063 96.3598C158.603 95.8212 159.021 95.1528 159.316 94.3549L162.677 95.3124C162.323 96.4695 161.728 97.4867 160.893 98.3643C160.058 99.2319 159.026 99.9102 157.797 100.399C156.569 100.878 155.188 101.117 153.655 101.117ZM166.318 100.638V97.3472H167.144C167.822 97.3472 168.387 97.2124 168.839 96.9432C169.291 96.6638 169.655 96.1802 169.93 95.4919C170.215 94.7938 170.431 93.8265 170.579 92.5898C170.736 91.3431 170.849 89.7574 170.918 87.8324L171.331 77.6595H186.427V100.638H182.948V80.9509H174.633L174.279 89.1489C174.2 91.0339 174.033 92.6944 173.778 94.1307C173.532 95.5568 173.154 96.7536 172.643 97.7212C172.141 98.6885 171.473 99.4166 170.638 99.9053C169.802 100.394 168.755 100.638 167.498 100.638H166.318ZM196.289 95.4322L207.199 77.6595H211.209V100.638H207.729V82.8656L196.879 100.638H192.81V77.6595H196.289V95.4322ZM244.412 87.5333V90.8244H231.911V87.5333H244.412ZM232.737 77.6595V100.638H229.257V77.6595H232.737ZM247.066 77.6595V100.638H243.586V77.6595H247.066ZM260.083 101.177C258.649 101.177 257.346 100.903 256.176 100.354C255.007 99.7955 254.078 98.9927 253.39 97.9454C252.703 96.8882 252.359 95.6118 252.359 94.1158C252.359 92.7993 252.613 91.732 253.125 90.9143C253.635 90.0865 254.32 89.4382 255.173 88.9694C256.029 88.5006 256.972 88.1516 258.005 87.9223C259.046 87.6829 260.093 87.4933 261.144 87.3538C262.521 87.1743 263.635 87.0395 264.491 86.9498C265.356 86.8501 265.985 86.6856 266.377 86.456C266.781 86.2266 266.982 85.8278 266.982 85.2593V85.1395C266.982 83.6636 266.585 82.5166 265.789 81.6989C265.003 80.8809 263.808 80.472 262.205 80.472C260.545 80.472 259.244 80.8411 258.298 81.579C257.355 82.3172 256.693 83.105 256.31 83.9429L253.007 82.746C253.596 81.3497 254.382 80.2625 255.365 79.4846C256.359 78.6968 257.44 78.1482 258.61 77.839C259.788 77.52 260.948 77.3604 262.088 77.3604C262.816 77.3604 263.651 77.45 264.595 77.6296C265.547 77.7992 266.467 78.1533 267.351 78.6919C268.246 79.2304 268.988 80.0432 269.576 81.1304C270.167 82.2175 270.462 83.6735 270.462 85.4985V100.638H266.982V97.5267H266.806C266.569 98.0252 266.177 98.5588 265.626 99.1273C265.077 99.6958 264.343 100.18 263.43 100.578C262.517 100.977 261.4 101.177 260.083 101.177ZM260.614 98.0053C261.991 98.0053 263.149 97.731 264.094 97.1824C265.047 96.634 265.764 95.9258 266.246 95.0582C266.737 94.1904 266.982 93.2779 266.982 92.3204V89.089C266.834 89.2685 266.511 89.4333 266.011 89.5828C265.517 89.7223 264.947 89.847 264.299 89.9568C263.661 90.0565 263.035 90.1462 262.427 90.226C261.827 90.2959 261.34 90.3556 260.967 90.4055C260.063 90.5253 259.218 90.7198 258.432 90.9889C257.655 91.2483 257.027 91.6422 256.545 92.1709C256.073 92.6895 255.837 93.3975 255.837 94.2953C255.837 95.5219 256.285 96.4494 257.18 97.0778C258.084 97.6961 259.228 98.0053 260.614 98.0053ZM305.943 77.6595V100.638H302.463V77.6595H305.943ZM304.587 88.6104V91.9015C303.8 92.2008 303.019 92.4651 302.244 92.6944C301.466 92.9139 300.65 93.0883 299.797 93.218C298.941 93.3378 298.002 93.3975 296.98 93.3975C294.414 93.3975 292.356 92.6944 290.802 91.2883C289.259 89.8819 288.488 87.7725 288.488 84.96V77.5996H291.966V84.96C291.966 86.137 292.188 87.1043 292.631 87.8624C293.074 88.6204 293.673 89.1838 294.43 89.5529C295.186 89.9219 296.037 90.1064 296.98 90.1064C298.454 90.1064 299.785 89.9718 300.975 89.7024C302.174 89.4232 303.378 89.0593 304.587 88.6104ZM318.99 101.177C317.556 101.177 316.252 100.903 315.083 100.354C313.914 99.7955 312.984 98.9927 312.297 97.9454C311.61 96.8882 311.266 95.6118 311.266 94.1158C311.266 92.7993 311.52 91.732 312.032 90.9143C312.542 90.0865 313.226 89.4382 314.08 88.9694C314.935 88.5006 315.879 88.1516 316.912 87.9223C317.952 87.6829 318.999 87.4933 320.051 87.3538C321.428 87.1743 322.542 87.0395 323.398 86.9498C324.262 86.8501 324.892 86.6856 325.284 86.456C325.688 86.2266 325.888 85.8278 325.888 85.2593V85.1395C325.888 83.6636 325.492 82.5166 324.696 81.6989C323.91 80.8809 322.715 80.472 321.112 80.472C319.451 80.472 318.151 80.8411 317.207 81.579C316.262 82.3172 315.6 83.105 315.217 83.9429L311.914 82.746C312.502 81.3497 313.289 80.2625 314.271 79.4846C315.265 78.6968 316.347 78.1482 317.516 77.839C318.695 77.52 319.855 77.3604 320.994 77.3604C321.723 77.3604 322.558 77.45 323.501 77.6296C324.454 77.7992 325.374 78.1533 326.257 78.6919C327.152 79.2304 327.895 80.0432 328.483 81.1304C329.073 82.2175 329.369 83.6735 329.369 85.4985V100.638H325.888V97.5267H325.713C325.476 98.0252 325.083 98.5588 324.532 99.1273C323.983 99.6958 323.25 100.18 322.337 100.578C321.423 100.977 320.307 101.177 318.99 101.177ZM319.521 98.0053C320.897 98.0053 322.055 97.731 323.001 97.1824C323.953 96.634 324.671 95.9258 325.153 95.0582C325.644 94.1904 325.888 93.2779 325.888 92.3204V89.089C325.743 89.2685 325.418 89.4333 324.917 89.5828C324.424 89.7223 323.854 89.847 323.206 89.9568C322.567 90.0565 321.942 90.1462 321.333 90.226C320.734 90.2959 320.247 90.3556 319.873 90.4055C318.969 90.5253 318.125 90.7198 317.339 90.9889C316.561 91.2483 315.934 91.6422 315.452 92.1709C314.979 92.6895 314.744 93.3975 314.744 94.2953C314.744 95.5219 315.192 96.4494 316.086 97.0778C316.99 97.6961 318.134 98.0053 319.521 98.0053ZM344.918 101.117C342.796 101.117 340.967 100.608 339.434 99.5912C337.9 98.5738 336.721 97.1726 335.896 95.3873C335.07 93.602 334.657 91.5626 334.657 89.2685C334.657 86.9349 335.079 84.8753 335.926 83.09C336.781 81.2949 337.969 79.8937 339.494 78.8864C341.025 77.869 342.815 77.3604 344.858 77.3604C346.452 77.3604 347.886 77.6595 349.164 78.258C350.442 78.8564 351.489 79.694 352.303 80.7713C353.12 81.8484 353.627 83.105 353.823 84.5413H350.343C350.077 83.494 349.487 82.5665 348.574 81.7585C347.67 80.9408 346.452 80.5319 344.918 80.5319C343.562 80.5319 342.372 80.8909 341.35 81.609C340.338 82.3172 339.547 83.3194 338.977 84.616C338.417 85.9025 338.137 87.4135 338.137 89.1489C338.137 90.9241 338.412 92.47 338.963 93.7865C339.521 95.1029 340.308 96.1252 341.32 96.8534C342.342 97.5815 343.541 97.9454 344.918 97.9454C345.822 97.9454 346.643 97.7858 347.379 97.4668C348.117 97.1475 348.742 96.6888 349.252 96.0904C349.764 95.4919 350.126 94.7739 350.343 93.9362H353.823C353.627 95.2925 353.14 96.5142 352.363 97.6013C351.597 98.6784 350.58 99.5362 349.312 100.174C348.052 100.803 346.588 101.117 344.918 101.117Z" fill="white"/>
<path d="M35.0969 59.0567C34.5508 54.982 31.9513 52.5922 30.2759 51.9284V59.4758C29.843 63.1655 24.6341 66.9392 19.6079 64.7172C14.72 62.5563 17.2145 57.4492 18.7873 55.7021L19.6079 58.4484C19.8131 58.5881 20.5516 59.1404 21.8646 59.4758C23.1777 59.8112 24.258 59.3361 24.6341 59.0567V43.8568C24.8394 42.3891 25.5574 41.4457 26.0703 40.9216C26.9769 39.9951 27.455 39.4542 28.2244 38.9299C29.4553 38.0914 31.3016 37.2734 33.4557 37.2734C37.0186 37.2734 39.2684 39.5939 40.0205 40.9216C40.0205 40.9216 37.3311 44.6813 36.9208 45.345C36.5105 46.009 34.584 48.4899 34.584 48.4899C34.584 48.4899 36.5105 49.9575 36.9208 50.3767C36.9208 50.3767 38.6863 52.0384 39.3826 52.8927C40.5335 54.3037 41.1119 55.1343 41.4341 56.5615C41.742 57.9241 41.8409 59.0567 41.742 60.2304C41.6428 61.4043 41.7092 62.4692 41.4341 63.6898C41.1573 64.9185 40.5335 66.6041 40.5335 66.6041L46.7906 87.3596C47.1324 88.1634 48.001 90.0013 48.7395 90.9237C49.478 91.8462 50.6201 91.8671 51.0987 91.7622L66.998 84.9485C67.5109 84.5991 68.6392 83.6697 69.0495 82.7474C69.4598 81.8248 68.8786 79.7074 68.5366 78.764C65.1174 67.4078 58.033 44.1713 57.0481 42.0748C56.0633 39.9782 53.2869 39.3142 52.0219 39.2445L52.5348 51.9284C52.8084 52.6273 52.0835 54.2555 46.9957 55.1781C41.9081 56.1005 41.6617 50.1113 42.1747 47.0016C42.4141 48.0847 43.5901 50.1464 46.3803 49.727C49.1703 49.3076 48.5001 44.6605 47.8163 42.3891C46.3462 39.5939 41.4156 33.7726 33.4557 32.85C25.4958 31.9276 20.9072 38.8251 19.6079 42.3891L18.7873 49.727C15.7785 50.4607 9.65816 53.9201 9.24785 61.8869C8.83755 69.8537 14.1373 73.9418 16.8385 74.99C16.8043 82.1531 16.7565 96.8358 16.8385 98.2616C16.9206 99.6871 18.5822 102.035 22.0699 102.979C24.2321 102.669 26.2433 100.542 26.9935 98.7856C27.1986 96.2699 27.3173 94.2059 27.1986 94.1733C22.9314 92.9994 25.4206 91.5177 27.1986 90.9237C27.5062 90.9237 27.2705 87.3339 27.0736 87.2756C23.8938 86.3322 24.0988 84.6548 27.1986 83.9003C27.1986 83.0617 27.2288 73.8268 27.8141 73.6274C31.5068 72.3695 34.584 67.4426 34.584 67.4426C34.584 67.4426 35.6899 63.4801 35.0969 59.0567Z" fill="white"/>
</svg>
