<svg width="326" height="248" viewBox="0 0 326 248" fill="none" xmlns="http://www.w3.org/2000/svg">
<path d="M151.08 72.7868L209.957 20.3806L245.13 156.488L186.252 208.894L151.08 72.7868ZM247.459 155.885L212.287 19.7778L284.149 35.919C287.231 36.6112 289.667 38.9713 290.459 42.0316L320.892 159.8C322.468 165.902 317.04 171.514 310.896 170.133L247.459 155.885ZM148.751 73.3896L183.923 209.496L107.04 192.228L71.8674 56.1208L148.751 73.3896ZM69.5381 56.7237L104.71 192.831L56.1306 236.071C51.425 240.259 43.9588 237.985 42.3819 231.884L11.9484 114.115C11.1576 111.055 12.1445 107.809 14.5047 105.708L69.5381 56.7237Z" fill="white" stroke="#3A3A3A" stroke-width="2"/>
<path d="M45.3747 115.069C45.6125 116.102 45.4789 117.757 45.0885 119.745C44.7034 121.705 44.0882 123.899 43.4354 125.96C42.7833 128.019 42.0972 129.934 41.5738 131.335C41.3521 131.93 41.1598 132.431 41.0119 132.81C40.7128 132.533 40.3208 132.167 39.862 131.73C38.7787 130.7 37.3244 129.278 35.8378 127.712C34.3496 126.144 32.8375 124.441 31.6341 122.847C30.4142 121.23 29.5705 119.801 29.3328 118.768C28.3338 114.428 31.1011 110.066 35.5408 109.043C39.9804 108.019 44.3756 110.729 45.3747 115.069Z" fill="#3BA00B" stroke="#3A3A3A"/>
<path d="M68.9485 157.983C69.1864 159.016 69.0527 160.67 68.6622 162.658C68.2772 164.619 67.6621 166.813 67.0093 168.874C66.3571 170.932 65.6711 172.848 65.1477 174.249C64.926 174.842 64.7336 175.343 64.5857 175.724C64.2866 175.447 63.8947 175.081 63.4359 174.644C62.3525 173.613 60.8981 172.191 59.4116 170.625C57.9235 169.058 56.4112 167.354 55.2079 165.76C53.9879 164.144 53.1444 162.715 52.9066 161.682C51.9075 157.342 54.6749 152.98 59.1145 151.957C63.5543 150.932 67.9495 153.643 68.9485 157.983Z" fill="#E9840F" stroke="#3A3A3A"/>
<path d="M114.561 81.7857C114.799 82.8186 114.665 84.4732 114.275 86.4608C113.889 88.4214 113.274 90.615 112.622 92.6761C111.969 94.7353 111.283 96.6506 110.76 98.0521C110.538 98.6457 110.346 99.1466 110.198 99.5265C109.899 99.2497 109.507 98.8835 109.048 98.4467C107.965 97.4157 106.51 95.9938 105.024 94.4278C103.536 92.8602 102.024 91.1571 100.82 89.5628C99.6002 87.9464 98.7567 86.5171 98.5189 85.4841C97.5198 81.1441 100.287 76.7825 104.727 75.7589C109.167 74.7354 113.562 77.4457 114.561 81.7857Z" stroke="#3A3A3A"/>
<path d="M143.659 138.646C143.896 139.679 143.762 141.334 143.373 143.321C142.988 145.281 142.372 147.476 141.719 149.537C141.067 151.595 140.381 153.511 139.858 154.912C139.636 155.506 139.444 156.006 139.296 156.387C138.996 156.11 138.604 155.744 138.146 155.307C137.062 154.276 135.608 152.853 134.122 151.288C132.634 149.721 131.122 148.017 129.918 146.424C128.698 144.807 127.855 143.378 127.616 142.345C126.618 138.005 129.385 133.643 133.825 132.619C138.264 131.595 142.659 134.306 143.659 138.646Z" fill="#E0A32D" stroke="#3A3A3A"/>
<path d="M187.128 76.4585C187.366 77.4915 187.232 79.1461 186.841 81.1337C186.456 83.0941 185.842 85.2877 185.188 87.349C184.536 89.408 183.851 91.3235 183.327 92.7249C183.105 93.3186 182.914 93.8194 182.766 94.1993C182.466 93.9224 182.074 93.5562 181.616 93.1195C180.532 92.0885 179.077 90.6665 177.591 89.1006C176.103 87.5331 174.59 85.8298 173.387 84.2355C172.168 82.6192 171.324 81.1899 171.086 80.157C170.087 75.8169 172.855 71.4553 177.293 70.4316C181.734 69.4081 186.129 72.1184 187.128 76.4585Z" fill="#4E8445" stroke="#3A3A3A"/>
<path d="M223.49 139.128C223.729 140.161 223.594 141.815 223.204 143.803C222.819 145.764 222.203 147.957 221.551 150.018C220.899 152.077 220.212 153.994 219.689 155.395C219.468 155.988 219.275 156.489 219.127 156.868C218.828 156.592 218.437 156.226 217.977 155.789C216.895 154.758 215.44 153.336 213.953 151.77C212.465 150.203 210.953 148.499 209.749 146.905C208.529 145.288 207.686 143.859 207.448 142.826C206.449 138.486 209.216 134.125 213.656 133.101C218.096 132.078 222.491 134.788 223.49 139.128Z" stroke="#3A3A3A"/>
<path d="M223.554 91.0583C223.791 92.0912 223.658 93.7458 223.268 95.7334C222.883 97.6938 222.267 99.8874 221.614 101.949C220.962 104.008 220.276 105.923 219.753 107.325C219.531 107.918 219.339 108.419 219.191 108.799C218.892 108.522 218.499 108.156 218.041 107.719C216.957 106.688 215.503 105.266 214.017 103.7C212.529 102.133 211.017 100.43 209.813 98.8352C208.593 97.2189 207.75 95.7896 207.512 94.7567C206.513 90.4166 209.28 86.0549 213.72 85.0314C218.159 84.0078 222.555 86.7181 223.554 91.0583Z" fill="#DD8181" stroke="#3A3A3A"/>
<path d="M273.059 78.245C273.297 79.2778 273.163 80.9325 272.773 82.9201C272.388 84.8805 271.773 87.0741 271.12 89.1354C270.468 91.1944 269.781 93.1099 269.258 94.5114C269.037 95.1049 268.844 95.6058 268.696 95.9856C268.398 95.7089 268.006 95.3426 267.546 94.906C266.464 93.875 265.009 92.453 263.522 90.8871C262.034 89.3194 260.522 87.6162 259.319 86.0219C258.098 84.4056 257.255 82.9764 257.017 81.9434C256.018 77.6033 258.785 73.2416 263.225 72.2181C267.665 71.1945 272.06 73.9048 273.059 78.245Z" fill="#3BA00B" stroke="#3A3A3A"/>
<path d="M37.8465 118.803C39.1771 118.459 39.9768 117.1 39.6327 115.768C39.2886 114.437 37.931 113.636 36.6004 113.981C35.2698 114.325 34.4701 115.684 34.8142 117.015C35.1583 118.347 36.5159 119.147 37.8465 118.803Z" fill="white" stroke="#3A3A3A" stroke-width="0.5"/>
<path d="M61.4193 161.716C62.7498 161.372 63.5495 160.013 63.2054 158.682C62.8613 157.35 61.5037 156.55 60.1731 156.894C58.8426 157.238 58.0429 158.597 58.387 159.929C58.7311 161.26 60.0887 162.061 61.4193 161.716Z" fill="white" stroke="#3A3A3A" stroke-width="0.5"/>
<path d="M107.032 85.5192C108.362 85.1749 109.162 83.8162 108.818 82.4846C108.474 81.153 107.116 80.3527 105.785 80.6971C104.455 81.0414 103.655 82.4001 103.999 83.7317C104.343 85.0633 105.701 85.8636 107.032 85.5192Z" fill="white" stroke="#3A3A3A" stroke-width="0.5"/>
<path d="M136.129 142.379C137.46 142.035 138.26 140.676 137.916 139.345C137.572 138.013 136.214 137.213 134.883 137.557C133.553 137.902 132.753 139.26 133.097 140.592C133.441 141.923 134.799 142.724 136.129 142.379Z" fill="white" stroke="#3A3A3A" stroke-width="0.5"/>
<path d="M179.599 80.192C180.93 79.8476 181.73 78.4889 181.386 77.1573C181.041 75.8257 179.684 75.0254 178.353 75.3698C177.023 75.7142 176.223 77.0728 176.567 78.4044C176.911 79.736 178.269 80.5363 179.599 80.192Z" fill="white" stroke="#3A3A3A" stroke-width="0.5"/>
<path d="M215.962 142.861C217.293 142.517 218.093 141.158 217.748 139.826C217.404 138.495 216.047 137.694 214.716 138.039C213.386 138.383 212.586 139.742 212.93 141.073C213.274 142.405 214.632 143.205 215.962 142.861Z" fill="white" stroke="#3A3A3A" stroke-width="0.5"/>
<path d="M216.025 94.7921C217.355 94.4477 218.155 93.089 217.811 91.7574C217.467 90.4258 216.109 89.6255 214.779 89.9699C213.448 90.3143 212.648 91.6729 212.992 93.0045C213.337 94.3361 214.694 95.1364 216.025 94.7921Z" fill="white" stroke="#3A3A3A" stroke-width="0.5"/>
<path d="M265.531 81.9784C266.862 81.634 267.661 80.2754 267.317 78.9438C266.973 77.6122 265.616 76.8119 264.285 77.1562C262.954 77.5006 262.155 78.8593 262.499 80.1909C262.843 81.5225 264.201 82.3228 265.531 81.9784Z" fill="white" stroke="#3A3A3A" stroke-width="0.5"/>
</svg>
