<svg width="23" height="27" viewBox="0 0 23 27" fill="none" xmlns="http://www.w3.org/2000/svg">
<path d="M19.6437 3.34491C17.4858 1.2032 14.5589 -2.25666e-08 11.507 0C8.45518 2.25666e-08 5.52832 1.2032 3.37033 3.34491C1.21235 5.48663 2.27381e-08 8.39141 0 11.4203C-2.27381e-08 14.4491 1.21235 17.3539 3.37033 19.4956L10.5171 26.6019C10.6431 26.728 10.7931 26.8282 10.9584 26.8965C11.1236 26.9648 11.3009 27 11.4799 27C11.6589 27 11.8362 26.9648 12.0015 26.8965C12.1667 26.8282 12.3167 26.728 12.4428 26.6019L19.6437 19.4283C21.7927 17.2955 23 14.4028 23 11.3866C23 8.37039 21.7927 5.47772 19.6437 3.34491ZM17.7045 17.5037L11.507 23.6813L5.30958 17.5037C4.0852 16.2874 3.25164 14.7382 2.91427 13.0519C2.57689 11.3655 2.75084 9.61777 3.41414 8.02953C4.07744 6.44129 5.2003 5.08387 6.64079 4.12886C8.08128 3.17386 9.77472 2.66414 11.507 2.66414C13.2394 2.66414 14.9328 3.17386 16.3733 4.12886C17.8138 5.08387 18.9366 6.44129 19.5999 8.02953C20.2632 9.61777 20.4372 11.3655 20.0998 13.0519C19.7624 14.7382 18.9289 16.2874 17.7045 17.5037ZM7.43869 7.28837C6.34391 8.37823 5.72916 9.8544 5.72916 11.3933C5.72916 12.9323 6.34391 14.4084 7.43869 15.4983C8.25204 16.3069 9.28787 16.8591 10.4162 17.0856C11.5446 17.3122 12.7153 17.203 13.7814 16.7717C14.8474 16.3405 15.7614 15.6063 16.4087 14.6615C17.056 13.7166 17.4077 12.6031 17.4197 11.4606C17.4258 10.6978 17.2778 9.94147 16.9843 9.2364C16.6908 8.53132 16.2578 7.89181 15.711 7.35567C15.1735 6.81001 14.5326 6.37524 13.8252 6.07635C13.1178 5.77747 12.3578 5.62038 11.589 5.61412C10.8201 5.60787 10.0576 5.75257 9.34535 6.03991C8.63308 6.32724 7.9851 6.75154 7.43869 7.28837ZM13.7989 13.5871C13.285 14.105 12.6058 14.4295 11.8774 14.5054C11.1491 14.5812 10.4168 14.4036 9.8058 14.0029C9.19479 13.6022 8.743 13.0033 8.52766 12.3087C8.31232 11.614 8.34681 10.8666 8.62523 10.1944C8.90366 9.52211 9.40872 8.96672 10.0541 8.62314C10.6994 8.27956 11.445 8.16913 12.1633 8.31073C12.8816 8.45233 13.5281 8.83717 13.9921 9.39944C14.4562 9.96172 14.7091 10.6665 14.7075 11.3933C14.6878 12.2241 14.3366 13.0132 13.7311 13.5871H13.7989Z" fill="#4E8445"/>
</svg>
