<svg width="27" height="25" viewBox="0 0 27 25" fill="none" xmlns="http://www.w3.org/2000/svg">
<path d="M26.2245 22.8924L21.4668 18.2916C23.3136 16.0468 24.208 13.1974 23.966 10.3295C23.724 7.46148 22.3641 4.79289 20.1658 2.87241C17.9676 0.951915 15.0981 -0.0744991 12.1475 0.0042144C9.1968 0.0829279 6.3892 1.26079 4.30199 3.2956C2.21477 5.33041 1.00657 8.06751 0.925832 10.9441C0.845091 13.8207 1.89794 16.6181 3.86789 18.7611C5.83785 20.9042 8.57517 22.2299 11.517 22.4658C14.4588 22.7018 17.3816 21.8299 19.6843 20.0294L24.4035 24.6302C24.5227 24.7474 24.6646 24.8404 24.8208 24.9039C24.9771 24.9673 25.1447 25 25.314 25C25.4833 25 25.6509 24.9673 25.8072 24.9039C25.9635 24.8404 26.1053 24.7474 26.2245 24.6302C26.4557 24.3971 26.5849 24.0855 26.5849 23.7613C26.5849 23.4371 26.4557 23.1255 26.2245 22.8924ZM12.49 20.0294C10.7145 20.0294 8.97893 19.5162 7.5027 18.5545C6.02646 17.5929 4.87588 16.2261 4.19644 14.627C3.51701 13.0279 3.33924 11.2683 3.68561 9.57067C4.03198 7.87305 4.88695 6.31369 6.14238 5.08978C7.39781 3.86587 8.99733 3.03238 10.7387 2.6947C12.48 2.35702 14.285 2.53033 15.9253 3.19271C17.5656 3.85508 18.9675 4.97678 19.9539 6.41595C20.9403 7.85511 21.4668 9.54712 21.4668 11.278C21.4668 13.599 20.521 15.825 18.8375 17.4662C17.1541 19.1074 14.8708 20.0294 12.49 20.0294Z" fill="#EFEFEF"/>
</svg>
