<svg width="16" height="15" viewBox="0 0 16 15" fill="none" xmlns="http://www.w3.org/2000/svg">
<path d="M7.04894 0.926989C7.3483 0.00567818 8.6517 0.00567865 8.95106 0.926989L10.0206 4.21879C10.1545 4.63081 10.5385 4.90977 10.9717 4.90977H14.4329C15.4016 4.90977 15.8044 6.14938 15.0207 6.71879L12.2205 8.75323C11.87 9.00787 11.7234 9.45924 11.8572 9.87126L12.9268 13.1631C13.2261 14.0844 12.1717 14.8505 11.388 14.2811L8.58778 12.2466C8.2373 11.992 7.7627 11.992 7.41221 12.2466L4.61204 14.2811C3.82833 14.8505 2.77385 14.0844 3.0732 13.1631L4.14277 9.87126C4.27665 9.45924 4.12999 9.00787 3.7795 8.75323L0.979333 6.71879C0.195619 6.14938 0.598395 4.90977 1.56712 4.90977H5.02832C5.46154 4.90977 5.8455 4.63081 5.97937 4.21879L7.04894 0.926989Z" fill="#E9971C"/>
</svg>
