<svg width="390" height="222" viewBox="0 0 390 222" fill="none" xmlns="http://www.w3.org/2000/svg">
<g clip-path="url(#clip0_229_2204)">
<path d="M22.9412 5.41464V222" stroke="#3A3A3A"/>
<path d="M21.5918 220.646H390" stroke="#3A3A3A"/>
<path d="M101.211 29.7805H48.5813V203.049H101.211V29.7805Z" fill="#D9D9D9"/>
<path d="M184.879 101.524H132.249V203.049H184.879V101.524Z" fill="#D9D9D9"/>
<path d="M352.214 83.9268H299.585V203.049H352.214V83.9268Z" fill="#D9D9D9"/>
<path d="M268.547 143.488H215.917V203.049H268.547V143.488Z" fill="#3BA00B"/>
<path d="M240.872 168.342C240.6 166.378 239.314 165.226 238.484 164.907V168.544C238.27 170.323 235.691 172.142 233.202 171.071C230.783 170.029 232.018 167.568 232.796 166.726L233.202 168.049C233.304 168.116 233.669 168.383 234.32 168.544C234.97 168.706 235.505 168.478 235.691 168.342V161.016C235.792 160.308 236.148 159.855 236.402 159.602C236.851 159.155 237.088 158.894 237.468 158.642C238.078 158.237 238.992 157.843 240.059 157.843C241.823 157.843 242.936 158.961 243.309 159.602C243.309 159.602 241.977 161.414 241.774 161.734C241.571 162.053 240.618 163.25 240.618 163.25C240.618 163.25 241.571 163.956 241.774 164.16C241.774 164.16 242.649 164.96 242.993 165.371C243.562 166.052 243.85 166.453 244.009 167.14C244.162 167.797 244.21 168.342 244.162 168.908C244.112 169.474 244.145 169.987 244.009 170.576C243.871 171.167 243.562 171.98 243.562 171.98L246.661 181.985C246.83 182.372 247.26 183.257 247.626 183.702C247.991 184.146 248.557 184.157 248.793 184.106L256.666 180.822C256.92 180.654 257.478 180.206 257.681 179.76C257.884 179.316 257.597 178.296 257.427 177.841C255.735 172.368 252.226 161.168 251.739 160.157C251.252 159.147 249.877 158.827 249.25 158.794L249.504 164.907C249.641 165.244 249.282 166.029 246.762 166.473C244.244 166.918 244.121 164.031 244.375 162.532C244.494 163.054 245.077 164.047 246.457 163.845C247.839 163.644 247.507 161.403 247.168 160.308C246.441 158.961 244 156.155 240.059 155.711C236.117 155.266 233.846 158.591 233.202 160.308L232.796 163.845C231.306 164.199 228.277 165.867 228.073 169.707C227.871 173.546 230.494 175.517 231.831 176.022C231.815 179.475 231.791 186.552 231.831 187.238C231.872 187.926 232.695 189.057 234.421 189.512C235.493 189.363 236.488 188.337 236.86 187.491C236.961 186.278 237.02 185.283 236.961 185.268C234.847 184.703 236.081 183.988 236.961 183.702C237.113 183.702 236.996 181.972 236.899 181.944C235.325 181.489 235.426 180.681 236.961 180.317C236.961 179.912 236.976 175.461 237.266 175.365C239.094 174.759 240.618 172.384 240.618 172.384C240.618 172.384 241.164 170.474 240.872 168.342Z" fill="white"/>
<path d="M7.03874 26.581V4.43015H8.45339V26.581H7.03874ZM11.8003 11.0754C11.6967 10.1986 11.277 9.5179 10.5409 9.03336C9.8048 8.5488 8.90195 8.30652 7.83233 8.30652C7.05024 8.30652 6.36592 8.43343 5.77935 8.68724C5.19854 8.94105 4.74425 9.29005 4.41646 9.73421C4.09442 10.1784 3.9334 10.6831 3.9334 11.2484C3.9334 11.7214 4.04554 12.1281 4.26981 12.4685C4.49984 12.803 4.79313 13.0828 5.14966 13.3078C5.50621 13.527 5.87998 13.7086 6.27104 13.8529C6.66208 13.9913 7.02148 14.1038 7.34927 14.1904L9.14348 14.6749C9.60353 14.796 10.1153 14.9633 10.6789 15.1767C11.2482 15.3901 11.7916 15.6814 12.3092 16.0506C12.8325 16.414 13.2638 16.8813 13.6031 17.4524C13.9424 18.0234 14.112 18.7243 14.112 19.5549C14.112 20.5125 13.8618 21.3778 13.3616 22.1507C12.867 22.9238 12.1424 23.5381 11.1878 23.9937C10.239 24.4495 9.08596 24.6773 7.72881 24.6773C6.46368 24.6773 5.36818 24.4725 4.44233 24.063C3.52224 23.6534 2.79765 23.0823 2.2686 22.3498C1.74528 21.6172 1.44913 20.7663 1.38013 19.7972H3.58836C3.64587 20.4664 3.87015 21.0201 4.26119 21.4586C4.65798 21.8912 5.15828 22.2142 5.76211 22.4277C6.37167 22.6353 7.02725 22.7392 7.72881 22.7392C8.54541 22.7392 9.27861 22.6065 9.92843 22.3412C10.5783 22.07 11.0929 21.6951 11.4725 21.2163C11.852 20.7317 12.0418 20.1664 12.0418 19.5204C12.0418 18.932 11.8779 18.4532 11.5501 18.0841C11.2223 17.7148 10.791 17.4149 10.2562 17.1841C9.72142 16.9533 9.14348 16.7515 8.5224 16.5785L6.34867 15.9554C4.96852 15.5574 3.8759 14.9893 3.07081 14.2509C2.26572 13.5125 1.86317 12.5463 1.86317 11.3523C1.86317 10.3601 2.13059 9.49482 2.66539 8.75647C3.20595 8.01233 3.93052 7.4355 4.83913 7.02593C5.75347 6.61061 6.77422 6.40294 7.90133 6.40294C9.03996 6.40294 10.0521 6.60772 10.9377 7.01728C11.8233 7.42107 12.5248 7.97484 13.0424 8.67859C13.5658 9.38234 13.8417 10.1813 13.8705 11.0754H11.8003Z" fill="#3A3A3A"/>
</g>
<defs>
<clipPath id="clip0_229_2204">
<rect width="390" height="222" fill="white"/>
</clipPath>
</defs>
</svg>
