<svg width="27" height="28" viewBox="0 0 27 28" fill="none" xmlns="http://www.w3.org/2000/svg">
<path d="M18.1947 14.7873C19.5019 13.7589 20.456 12.3486 20.9244 10.7526C21.3927 9.15661 21.3519 7.45435 20.8078 5.88262C20.2636 4.31089 19.243 2.94785 17.8881 1.98314C16.5332 1.01842 14.9113 0.5 13.248 0.5C11.5848 0.5 9.96286 1.01842 8.60795 1.98314C7.25304 2.94785 6.2325 4.31089 5.68833 5.88262C5.14415 7.45435 5.10339 9.15661 5.57172 10.7526C6.04006 12.3486 6.99419 13.7589 8.30138 14.7873C6.06148 15.6847 4.10709 17.1731 2.64657 19.0939C1.18604 21.0146 0.274126 23.2957 0.00804245 25.694C-0.0112181 25.8691 0.00419784 26.0463 0.0534097 26.2154C0.102622 26.3845 0.184666 26.5423 0.294858 26.6798C0.517401 26.9573 0.841087 27.1351 1.19471 27.174C1.54833 27.2129 1.90292 27.1097 2.18048 26.8872C2.45803 26.6646 2.63581 26.341 2.67471 25.9873C2.96749 23.3809 4.21029 20.9737 6.16567 19.2257C8.12105 17.4777 10.6519 16.5114 13.2747 16.5114C15.8975 16.5114 18.4284 17.4777 20.3838 19.2257C22.3391 20.9737 23.5819 23.3809 23.8747 25.9873C23.911 26.315 24.0673 26.6175 24.3135 26.8367C24.5597 27.0558 24.8784 27.176 25.208 27.174H25.3547C25.7042 27.1338 26.0237 26.9571 26.2435 26.6823C26.4632 26.4076 26.5655 26.0571 26.528 25.7073C26.2607 23.3023 25.3439 21.0153 23.8758 19.0916C22.4078 17.1679 20.4439 15.68 18.1947 14.7873ZM13.248 13.8407C12.1932 13.8407 11.1621 13.5279 10.285 12.9418C9.40794 12.3558 8.72435 11.5228 8.32068 10.5483C7.91702 9.57377 7.8114 8.50141 8.01719 7.46685C8.22297 6.43228 8.73093 5.48197 9.47681 4.73609C10.2227 3.99021 11.173 3.48226 12.2076 3.27647C13.2421 3.07069 14.3145 3.1763 15.289 3.57997C16.2636 3.98364 17.0965 4.66722 17.6825 5.54429C18.2686 6.42135 18.5814 7.45249 18.5814 8.50733C18.5814 9.92182 18.0195 11.2784 17.0193 12.2786C16.0191 13.2788 14.6625 13.8407 13.248 13.8407Z" fill="#4E8445"/>
</svg>
